HIERARCHY
ROOT hip
{
  OFFSET 0 0 0
  CHANNELS 6 Xposition Yposition Zposition Zrotation Yrotation Xrotation
  JOINT abdomen
  {
    OFFSET 0 20.6881 -0.73152
    CHANNELS 3 Zrotation Xrotation Yrotation
    JOINT chest
    {
      OFFSET 0 11.7043 -0.48768
      CHANNELS 3 Zrotation Xrotation Yrotation
      JOINT neck
      {
        OFFSET 0 22.1894 -2.19456
        CHANNELS 3 Zrotation Xrotation Yrotation
        JOINT head
        {
          OFFSET -0.24384 7.07133 1.2192
          CHANNELS 3 Zrotation Xrotation Yrotation
          JOINT leftEye
          {
            OFFSET 4.14528 8.04674 8.04672
            CHANNELS 3 Zrotation Xrotation Yrotation
            End Site
            {
              OFFSET 1 0 0
            }
          }
          JOINT rightEye
          {
            OFFSET -3.6576 8.04674 8.04672
            CHANNELS 3 Zrotation Xrotation Yrotation
            End Site
            {
              OFFSET 1 0 0
            }
          }
        }
      }
      JOINT rCollar
      {
        OFFSET -2.68224 19.2634 -4.8768
        CHANNELS 3 Zrotation Xrotation Yrotation
        JOINT rShldr
        {
          OFFSET -8.77824 -1.95073 1.46304
          CHANNELS 3 Zrotation Xrotation Yrotation
          JOINT rForeArm
          {
            OFFSET -28.1742 -1.7115 0.48768
            CHANNELS 3 Zrotation Xrotation Yrotation
            JOINT rHand
            {
              OFFSET -22.5879 0.773209 7.07136
              CHANNELS 3 Zrotation Xrotation Yrotation
              JOINT rThumb1
              {
                OFFSET -1.2192 -0.487915 3.41376
                CHANNELS 3 Zrotation Xrotation Yrotation
                JOINT rThumb2
                {
                  OFFSET -3.37035 -0.52449 3.41376
                  CHANNELS 3 Zrotation Xrotation Yrotation
                  End Site
                  {
                    OFFSET -1.78271 -1.18214 1.43049
                  }
                }
              }
              JOINT rIndex1
              {
                OFFSET -7.75947 0.938293 5.60832
                CHANNELS 3 Zrotation Xrotation Yrotation
                JOINT rIndex2
                {
                  OFFSET -2.54057 -0.884171 1.56538
                  CHANNELS 3 Zrotation Xrotation Yrotation
                  End Site
                  {
                    OFFSET -1.62519 -0.234802 1.16502
                  }
                }
              }
              JOINT rMid1
              {
                OFFSET -8.24714 1.18213 3.41376
                CHANNELS 3 Zrotation Xrotation Yrotation
                JOINT rMid2
                {
                  OFFSET -3.10165 -0.590103 1.0647
                  CHANNELS 3 Zrotation Xrotation Yrotation
                  End Site
                  {
                    OFFSET -2.48547 -0.328903 0.83742
                  }
                }
              }
              JOINT rRing1
              {
                OFFSET -8.82822 0.546677 1.51678
                CHANNELS 3 Zrotation Xrotation Yrotation
                JOINT rRing2
                {
                  OFFSET -2.60934 -0.819778 -0.0198488
                  CHANNELS 3 Zrotation Xrotation Yrotation
                  End Site
                  {
                    OFFSET -2.33842 -0.294052 0.168128
                  }
                }
              }
              JOINT rPinky1
              {
                OFFSET -8.27202 -0.0477905 -0.4584
                CHANNELS 3 Zrotation Xrotation Yrotation
                JOINT rPinky2
                {
                  OFFSET -1.82734 -0.647385 -0.700984
                  CHANNELS 3 Zrotation Xrotation Yrotation
                  End Site
                  {
                    OFFSET -1.69225 -0.51767 -0.607171
                  }
                }
              }
            }
          }
        }
      }
      JOINT lCollar
      {
        OFFSET 2.68224 19.2634 -4.8768
        CHANNELS 3 Zrotation Xrotation Yrotation
        JOINT lShldr
        {
          OFFSET 8.77824 -1.95073 1.46304
          CHANNELS 3 Zrotation Xrotation Yrotation
          JOINT lForeArm
          {
            OFFSET 28.1742 -1.7115 0.48768
            CHANNELS 3 Zrotation Xrotation Yrotation
            JOINT lHand
            {
              OFFSET 22.5879 0.773209 7.07136
              CHANNELS 3 Zrotation Xrotation Yrotation
              JOINT lThumb1
              {
                OFFSET 1.2192 -0.487915 3.41376
                CHANNELS 3 Zrotation Xrotation Yrotation
                JOINT lThumb2
                {
                  OFFSET 3.37035 -0.52449 3.41376
                  CHANNELS 3 Zrotation Xrotation Yrotation
                  End Site
                  {
                    OFFSET 1.78271 -1.18214 1.43049
                  }
                }
              }
              JOINT lIndex1
              {
                OFFSET 7.75947 0.938293 5.60832
                CHANNELS 3 Zrotation Xrotation Yrotation
                JOINT lIndex2
                {
                  OFFSET 2.54057 -0.884171 1.56538
                  CHANNELS 3 Zrotation Xrotation Yrotation
                  End Site
                  {
                    OFFSET 1.62519 -0.234802 1.16502
                  }
                }
              }
              JOINT lMid1
              {
                OFFSET 8.24714 1.18213 3.41376
                CHANNELS 3 Zrotation Xrotation Yrotation
                JOINT lMid2
                {
                  OFFSET 3.10165 -0.590103 1.0647
                  CHANNELS 3 Zrotation Xrotation Yrotation
                  End Site
                  {
                    OFFSET 2.48547 -0.328903 0.83742
                  }
                }
              }
              JOINT lRing1
              {
                OFFSET 8.82822 0.546677 1.51678
                CHANNELS 3 Zrotation Xrotation Yrotation
                JOINT lRing2
                {
                  OFFSET 2.60934 -0.819778 -0.0198488
                  CHANNELS 3 Zrotation Xrotation Yrotation
                  End Site
                  {
                    OFFSET 2.33842 -0.294052 0.168128
                  }
                }
              }
              JOINT lPinky1
              {
                OFFSET 8.27202 -0.0477905 -0.4584
                CHANNELS 3 Zrotation Xrotation Yrotation
                JOINT lPinky2
                {
                  OFFSET 1.82734 -0.647385 -0.700984
                  CHANNELS 3 Zrotation Xrotation Yrotation
                  End Site
                  {
                    OFFSET 1.69225 -0.51767 -0.607171
                  }
                }
              }
            }
          }
        }
      }
    }
  }
  JOINT rButtock
  {
    OFFSET -8.77824 4.35084 1.2192
    CHANNELS 3 Zrotation Xrotation Yrotation
    JOINT rThigh
    {
      OFFSET 0 -1.70687 -2.19456
      CHANNELS 3 Zrotation Xrotation Yrotation
      JOINT rShin
      {
        OFFSET 0 -36.8199 0.73152
        CHANNELS 3 Zrotation Xrotation Yrotation
        JOINT rFoot
        {
          OFFSET 0.73152 -45.1104 -5.12064
          CHANNELS 3 Zrotation Xrotation Yrotation
          End Site
          {
            OFFSET -1.1221 -3.69964 12.103
          }
        }
      }
    }
  }
  JOINT lButtock
  {
    OFFSET 8.77824 4.35084 1.2192
    CHANNELS 3 Zrotation Xrotation Yrotation
    JOINT lThigh
    {
      OFFSET 0 -1.70687 -2.19456
      CHANNELS 3 Zrotation Xrotation Yrotation
      JOINT lShin
      {
        OFFSET 0 -36.8199 0.73152
        CHANNELS 3 Zrotation Xrotation Yrotation
        JOINT lFoot
        {
          OFFSET -0.73152 -45.1104 -5.12064
          CHANNELS 3 Zrotation Xrotation Yrotation
          End Site
          {
            OFFSET 1.1221 -3.69964 12.103
          }
        }
      }
    }
  }
}
MOTION
Frames:	5
Frame Time:	0.03333
0.0 0.0 0.0 0.0 0.0 0.0 0.0 0.0 0.0 0.0 0.0 0.0 0.0 0.0 0.0 0.0 0.0 0.0 0.0 0.0 0.0 0.0 0.0 0.0 0.0 0.0 0.0 0.0 0.0 0.0 0.0 0.0 0.0 0.0 0.0 0.0 0.0 0.0 0.0 0.0 0.0 0.0 0.0 0.0 0.0 0.0 0.0 0.0 0.0 0.0 0.0 0.0 0.0 0.0 0.0 0.0 0.0 0.0 0.0 0.0 0.0 0.0 0.0 0.0 0.0 0.0 0.0 0.0 0.0 0.0 0.0 0.0 0.0 0.0 0.0 0.0 0.0 0.0 0.0 0.0 0.0 0.0 0.0 0.0 0.0 0.0 0.0 0.0 0.0 0.0 0.0 0.0 0.0 0.0 0.0 0.0 0.0 0.0 0.0 0.0 0.0 0.0 0.0 0.0 0.0 0.0 0.0 0.0 0.0 0.0 0.0 0.0 0.0 0.0 0.0 0.0 0.0 0.0 0.0 0.0 0.0 0.0 0.0 0.0 0.0 0.0 0.0 0.0 0.0 0.0 0.0 0.0
-0.024800000000000003 62.473800000000004 -0.1461 -0.323988 -43.41955 -0.672904 0.44963 3.594348 -2.50562 10.623107 -0.601059 -81.111856 -9.240063 -14.092929 -53.65339 -32.681684 39.529705 -125.054449 53.454291 -6.352554 -12.577936 -4.326811 0.540064 -14.222909 104.330827 -80.202025 7.792381 0.68836 22.929147 9.209696 -6.743425 -43.088125 166.882359 146.330027 -53.666114 67.387214 36.164388 -11.514165 31.843763 -2.825591 17.781156 -152.355293 112.31281 8.826545 -108.638566 -15.442956 -2.575818 -160.296286 -34.39044 -13.147035 -118.522428 -170.904848 20.541539 125.663388 -80.533236 11.592883 -104.235655 16.604242 -21.120981 6.171725 105.707873 17.571573 -55.410438 -20.178534 -2.937276 -10.539376 -62.723472 43.612743 -18.549766 162.933851 9.443231 -169.931244 1.56312 -17.606161 -168.553698 -142.06599 -59.108844 -64.389789 156.57486 -0.167787 -45.45241 143.967165 -30.158965 -72.609888 -12.48821 -28.268972 -52.427406 143.79153 -26.293164 -127.510612 -62.55283 32.647718 -58.728187 -141.848757 -24.639758 92.294378 -89.561849 3.599819 89.28337 11.337496 -35.828824 11.730556 -36.421711 25.749052 74.801703 119.010567 45.176905 179.10379 -45.809793 37.921044 -111.034478 12.855951 55.669316 25.570458 5.900246 -0.769162 92.526534 69.370849 16.054278 -82.73207 0.520845 -45.139911 0.321705 -0.110665 45.845705 -0.066824 3.452694 5.92622 144.451956 72.186927 53.142204 -87.251413
0.1336 59.6414 2.5372 -49.989618 78.251372 -48.429963 0.236312 13.615242 -41.739327 10.202363 -3.861351 51.168386 -2.607376 38.400079 -150.727901 12.5296 45.916603 176.732194 11.170865 0.856293 8.739257 -1.776916 -0.326144 20.799624 -155.063136 1.999107 152.855342 117.138092 -12.574704 133.467889 178.166548 9.045909 37.39882 -158.902343 25.864149 130.042623 -177.698167 -2.613898 87.338056 -138.794589 -14.673146 46.593431 -132.10317 -73.386303 -178.840316 -116.615122 -8.358068 125.740801 -9.289661 -7.057075 13.848121 -158.444776 -18.669823 143.295259 -24.154139 -69.307246 -26.256459 48.260857 34.094239 -28.125835 -9.294607 31.639376 -21.4932 -69.766976 40.638282 105.40204 155.801084 3.631708 -161.879456 118.745461 -53.209346 110.320811 96.876095 -57.038988 59.762554 1.331992 -1.677935 -4.988666 14.984279 21.065451 -1.986952 145.320253 -17.02722 -94.230249 159.619122 -9.387008 -111.126538 171.716565 14.995814 -109.24426 159.765895 -10.185844 -137.100312 167.755044 0.29525 -135.132376 2.690791 -14.987995 -1.854572 146.920938 -50.359488 178.793874 149.274738 73.321397 149.290278 -82.93421 52.276645 57.067798 -162.356806 76.138767 -17.344996 133.352849 57.25684 -16.16204 -55.174917 28.722386 -11.66442 -144.320527 -68.077743 -45.315344 -61.629374 32.723758 -37.31423 140.673865 0.269547 89.139294 78.014141 53.814901 29.464285 -148.994822 77.07724 62.243191
0.00019999999999999998 57.405300000000004 2.6016 -56.503415 81.387029 -55.187933 -0.684948 7.54402 -136.040221 -3.104773 10.057083 138.18878 -28.562123 16.109709 -75.109684 27.719113 31.511047 107.16753 16.553392 -0.243568 -1.674249 14.437366 3.884786 29.979337 -26.251976 35.509829 23.703064 -96.209937 10.954152 173.455668 175.18848 -29.772832 -76.356486 -10.610545 -20.16152 -6.040945 -176.612026 -0.858347 95.248235 4.678062 -50.946566 24.678767 -171.557802 -57.045855 125.691673 -95.300046 21.415166 87.325628 -162.123201 16.829061 143.288903 -7.675715 -13.003624 -25.404163 -147.545614 45.812001 155.442953 168.895856 43.079871 161.257552 -138.474987 -11.982671 -117.821281 32.709074 -16.667723 -3.225989 135.844618 -51.914163 157.979685 -115.801979 53.99329 54.138135 52.045899 34.999853 -26.96627 -20.555059 -27.087165 -27.900218 -107.368868 -72.104733 -43.233269 136.420492 -46.404081 -176.445517 161.446823 -33.304092 -119.320345 177.889986 44.290736 -103.616473 4.997794 -22.616817 8.993273 9.273906 -30.572307 54.726073 25.412282 -34.513337 6.312959 -88.910667 35.071249 44.612219 151.716349 35.685855 151.322375 138.130667 27.414549 147.986348 136.399064 68.324108 36.013027 152.042742 61.006042 35.524389 2.418396 48.546397 -45.480552 -160.965562 -31.942211 -8.572435 103.388914 36.82641 47.562352 -91.224233 -19.769309 -9.351683 -57.20151 73.05166 -51.678372 144.975273 -2.449215 -121.75824
0.8853 57.9182 2.0577 -72.159982 80.453698 -71.66025 2.056312 8.935052 157.736585 -8.565136 0.702013 -149.833632 -2.106714 13.65561 68.601423 -16.925214 -17.095237 -42.925359 -13.296044 -5.797379 46.963637 6.188268 -0.053463 -0.98901 -33.122421 50.039542 36.573636 -93.928239 -5.902231 165.779335 172.234436 -4.80924 -72.796304 -18.970022 -24.79901 -3.604951 3.432023 -3.875939 -10.989723 -143.120187 -50.915186 110.715835 -149.782345 -14.767345 123.177787 8.617483 28.444639 1.662441 -154.205705 -34.045362 145.881446 74.140741 -79.586209 33.372696 -26.280651 -67.303678 -28.116234 -36.251641 -43.393106 -95.775884 -14.398158 -16.43174 -16.410914 -151.53797 -61.739132 -139.014697 155.235766 26.060495 -161.960729 57.25459 -21.495607 55.088757 -5.841943 -4.289232 49.085406 -120.167456 -58.358773 -117.483682 147.843907 11.803826 -99.883685 80.577219 20.696297 2.233123 21.46697 35.259272 -9.333162 42.314202 19.197888 -41.042738 -28.271274 -60.910209 -6.739522 39.02028 56.293725 -15.131949 9.256723 -32.561551 3.363118 -33.172419 26.156926 18.747435 5.236344 18.537626 -20.053476 -9.113993 36.74562 -5.5263 71.999267 12.175298 29.706277 -94.849496 33.044501 3.6631 33.82192 40.209929 88.555816 -99.768426 -9.764589 -175.919439 -81.373512 61.176704 -55.886775 176.530912 21.460139 175.739751 71.091394 -48.159773 159.711952 142.98633 -31.019621 -109.007285
